# Blender v2.78 (sub 0) OBJ File: ''
# www.blender.org
o HeightField
v -30.000000 0.000000 -30.000000
v -18.000000 0.000000 -30.000000
v -6.000000 0.000000 -30.000000
v 6.000000 0.000000 -30.000000
v 18.000000 0.000000 -30.000000
v 30.000000 0.000000 -30.000000
v -30.000000 0.000000 -18.000000
v -18.000000 0.000000 -18.000000
v -6.000000 0.000000 -18.000000
v 6.000000 0.000000 -18.000000
v 18.000000 0.000000 -18.000000
v 30.000000 0.000000 -18.000000
v -30.000000 0.000000 -6.000000
v -18.000000 0.000000 -6.000000
v -6.000000 -5.000000 -6.000000
v 6.000000 -5.000000 -6.000000
v 18.000000 0.000000 -6.000000
v 30.000000 0.000000 -6.000000
v -30.000000 0.000000 6.000000
v -18.000000 0.000000 6.000000
v -6.000000 -5.000000 6.000000
v 6.000000 -5.000000 6.000000
v 18.000000 0.000000 6.000000
v 30.000000 0.000000 6.000000
v -30.000000 0.000000 18.000000
v -18.000000 0.000000 18.000000
v -6.000000 0.000000 18.000000
v 6.000000 0.000000 18.000000
v 18.000000 0.000000 18.000000
v 30.000000 0.000000 18.000000
v -30.000000 0.000000 30.000000
v -18.000000 0.000000 30.000000
v -6.000000 0.000000 30.000000
v 6.000000 0.000000 30.000000
v 18.000000 0.000000 30.000000
v 30.000000 0.000000 30.000000
vn 0.0000 1.0000 0.0000
vn 0.0000 0.9231 0.3846
vn -0.3846 0.9231 0.0000
vn 0.0000 0.9231 -0.3846
vn 0.3846 0.9231 0.0000
s off
f 1//1 7//1 2//1
f 2//1 7//1 8//1
f 2//1 8//1 3//1
f 3//1 8//1 9//1
f 3//1 9//1 4//1
f 4//1 9//1 10//1
f 4//1 10//1 5//1
f 5//1 10//1 11//1
f 5//1 11//1 6//1
f 6//1 11//1 12//1
f 7//1 13//1 8//1
f 8//1 13//1 14//1
f 8//2 15//2 9//2
f 14//5 15//5 8//5
f 9//2 15//2 10//2
f 10//2 15//2 16//2
f 10//2 16//2 11//2
f 11//3 16//3 17//3
f 11//1 17//1 12//1
f 12//1 17//1 18//1
f 13//1 19//1 14//1
f 14//1 19//1 20//1
f 14//5 20//5 15//5
f 15//5 20//5 21//5
f 15//1 21//1 16//1
f 16//1 21//1 22//1
f 16//3 22//3 17//3
f 17//3 22//3 23//3
f 17//1 23//1 18//1
f 18//1 23//1 24//1
f 19//1 25//1 20//1
f 20//1 25//1 26//1
f 20//5 26//5 21//5
f 21//4 26//4 27//4
f 21//4 27//4 22//4
f 22//4 27//4 28//4
f 22//4 28//4 29//4
f 23//3 22//3 29//3
f 23//1 29//1 24//1
f 24//1 29//1 30//1
f 25//1 31//1 26//1
f 26//1 31//1 32//1
f 26//1 32//1 27//1
f 27//1 32//1 33//1
f 27//1 33//1 28//1
f 28//1 33//1 34//1
f 28//1 34//1 29//1
f 29//1 34//1 35//1
f 29//1 35//1 30//1
f 30//1 35//1 36//1